<svg width="32" height="32" viewBox="0 0 32 32" fill="none" xmlns="http://www.w3.org/2000/svg">
<path d="M15.3332 10.6666C16.8059 10.6666 17.9998 9.47268 17.9998 7.99992C17.9998 6.52716 16.8059 5.33325 15.3332 5.33325C13.8604 5.33325 12.6665 6.52716 12.6665 7.99992C12.6665 9.47268 13.8604 10.6666 15.3332 10.6666Z" fill="white"/>
<path d="M7.33317 26.6666C8.80593 26.6666 9.99984 25.4727 9.99984 23.9999C9.99984 22.5272 8.80593 21.3333 7.33317 21.3333C5.86041 21.3333 4.6665 22.5272 4.6665 23.9999C4.6665 25.4727 5.86041 26.6666 7.33317 26.6666Z" fill="white"/>
<path d="M7.33317 18.6666C8.80593 18.6666 9.99984 17.4727 9.99984 15.9999C9.99984 14.5272 8.80593 13.3333 7.33317 13.3333C5.86041 13.3333 4.6665 14.5272 4.6665 15.9999C4.6665 17.4727 5.86041 18.6666 7.33317 18.6666Z" fill="white"/>
<path d="M7.33317 10.6666C8.80593 10.6666 9.99984 9.47268 9.99984 7.99992C9.99984 6.52716 8.80593 5.33325 7.33317 5.33325C5.86041 5.33325 4.6665 6.52716 4.6665 7.99992C4.6665 9.47268 5.86041 10.6666 7.33317 10.6666Z" fill="white"/>
<path d="M23.3332 10.6666C24.8059 10.6666 25.9998 9.47268 25.9998 7.99992C25.9998 6.52716 24.8059 5.33325 23.3332 5.33325C21.8604 5.33325 20.6665 6.52716 20.6665 7.99992C20.6665 9.47268 21.8604 10.6666 23.3332 10.6666Z" fill="white"/>
<path d="M13.9998 24.0933V25.9999C13.9998 26.3733 14.2932 26.6666 14.6665 26.6666H16.5332C16.7065 26.6666 16.8798 26.5999 16.9998 26.4666L24.7732 18.6933L21.9465 15.8666L14.1998 23.6132C14.0665 23.7466 13.9998 23.9199 13.9998 24.0933Z" fill="white"/>
<path d="M15.3732 18.6666L17.9998 16.0399V15.9999C17.9998 14.5333 16.7998 13.3333 15.3332 13.3333C13.8665 13.3333 12.6665 14.5333 12.6665 15.9999C12.6665 17.4666 13.8665 18.6666 15.3332 18.6666H15.3732Z" fill="white"/>
<path d="M27.1332 15.4133L25.2532 13.5333C24.9865 13.2666 24.5732 13.2666 24.3065 13.5333L22.8932 14.9466L25.7198 17.7733L27.1332 16.3599C27.3998 16.0933 27.3998 15.6799 27.1332 15.4133Z" fill="white"/>
</svg>
