<svg width="18" height="20" viewBox="0 0 18 20" fill="none" xmlns="http://www.w3.org/2000/svg">
<path d="M0.713917 18.2753C1.1701 18.7315 1.90558 18.7315 2.36177 18.2753L10.0983 10.5388C10.4614 10.1757 10.4614 9.58921 10.0983 9.22612L2.36177 1.4896C1.90558 1.03341 1.1701 1.03341 0.713917 1.4896C0.257732 1.94578 0.257732 2.68127 0.713917 3.13745L7.45428 9.88713L0.704607 16.6368C0.257732 17.0837 0.257732 17.8285 0.713917 18.2753Z" fill="#999099"/>
<path d="M6.73937 18.8975C7.22937 19.3875 8.01936 19.3875 8.50936 18.8975L16.8194 10.5875C17.2094 10.1975 17.2094 9.5675 16.8194 9.1775L8.50936 0.8675C8.01936 0.3775 7.22937 0.3775 6.73937 0.8675C6.24937 1.3575 6.24937 2.1475 6.73937 2.6375L13.9794 9.8875L6.72937 17.1375C6.24937 17.6175 6.24937 18.4175 6.73937 18.8975Z" fill="black"/>
</svg>
