<svg width="24" height="24" viewBox="0 0 24 24" fill="none" xmlns="http://www.w3.org/2000/svg">
<path d="M7.66933 7.04C6.86933 6.7 6.52933 5.71 7.00933 4.99C7.97933 3.55 9.59933 2.5 11.7393 2.5C14.0893 2.5 15.6993 3.57 16.5193 4.91C17.2193 6.06 17.6293 8.21 16.5493 9.81C15.3493 11.58 14.1993 12.12 13.5793 13.26C13.4293 13.53 13.3393 13.75 13.2793 14.2C13.1893 14.93 12.5893 15.5 11.8493 15.5C10.9793 15.5 10.2693 14.75 10.3693 13.88C10.4293 13.37 10.5493 12.84 10.8293 12.34C11.5993 10.95 13.0793 10.13 13.9393 8.9C14.8493 7.61 14.3393 5.2 11.7593 5.2C10.5893 5.2 9.82933 5.81 9.35933 6.54C9.00933 7.11 8.27933 7.29 7.66933 7.04ZM13.7493 19.5C13.7493 20.6 12.8493 21.5 11.7493 21.5C10.6493 21.5 9.74933 20.6 9.74933 19.5C9.74933 18.4 10.6493 17.5 11.7493 17.5C12.8493 17.5 13.7493 18.4 13.7493 19.5Z" fill="#8E8E93"/>
</svg>
