<svg width="32" height="32" viewBox="0 0 32 32" fill="none" xmlns="http://www.w3.org/2000/svg">
<path d="M5.93819 17.5684V21.3151C5.93819 22.2884 6.47152 23.1951 7.32486 23.6617L13.9915 27.3017C14.7915 27.7417 15.7515 27.7417 16.5515 27.3017L23.2182 23.6617C24.0715 23.1951 24.6049 22.2884 24.6049 21.3151V17.5684L16.5515 21.9684C15.7515 22.4084 14.7915 22.4084 13.9915 21.9684L5.93819 17.5684ZM13.9915 4.68841L2.75152 10.8217C1.83152 11.3284 1.83152 12.6617 2.75152 13.1684L13.9915 19.3017C14.7915 19.7417 15.7515 19.7417 16.5515 19.3017L27.2715 13.4484V21.3284C27.2715 22.0617 27.8715 22.6617 28.6049 22.6617C29.3382 22.6617 29.9382 22.0617 29.9382 21.3284V12.7817C29.9382 12.2884 29.6715 11.8484 29.2449 11.6084L16.5515 4.68841C15.7515 4.26174 14.7915 4.26174 13.9915 4.68841Z" fill="white"/>
</svg>
