<svg width="12" height="20" viewBox="0 0 12 20" fill="none" xmlns="http://www.w3.org/2000/svg">
<path d="M1.66933 5.04C0.869334 4.7 0.529334 3.71 1.00933 2.99C1.97933 1.55 3.59933 0.5 5.73933 0.5C8.08933 0.5 9.69933 1.57 10.5193 2.91C11.2193 4.06 11.6293 6.21 10.5493 7.81C9.34933 9.58 8.19933 10.12 7.57933 11.26C7.42933 11.53 7.33933 11.75 7.27933 12.2C7.18933 12.93 6.58933 13.5 5.84933 13.5C4.97933 13.5 4.26933 12.75 4.36933 11.88C4.42933 11.37 4.54933 10.84 4.82933 10.34C5.59933 8.95 7.07933 8.13 7.93933 6.9C8.84933 5.61 8.33933 3.2 5.75933 3.2C4.58933 3.2 3.82933 3.81 3.35933 4.54C3.00933 5.11 2.27933 5.29 1.66933 5.04ZM7.74933 17.5C7.74933 18.6 6.84933 19.5 5.74933 19.5C4.64933 19.5 3.74933 18.6 3.74933 17.5C3.74933 16.4 4.64933 15.5 5.74933 15.5C6.84933 15.5 7.74933 16.4 7.74933 17.5Z" fill="#8E8E93"/>
</svg>
