<svg width="63" height="21" viewBox="0 0 63 21" fill="none" xmlns="http://www.w3.org/2000/svg">
<path d="M16 11.22V9.23C16 8.47 15.57 7.78 14.89 7.44L11 5.5V4H12C12.55 4 13 3.55 13 3C13 2.45 12.55 2 12 2H11V1C11 0.45 10.55 0 10 0C9.45 0 9 0.45 9 1V2H8C7.45 2 7 2.45 7 3C7 3.55 7.45 4 8 4H9V5.5L5.11 7.45C4.43 7.79 4 8.48 4 9.24V11.23L1.19 12.48C0.47 12.79 0 13.51 0 14.3V19C0 20.1 0.9 21 2 21H8V18.11C8 17.11 8.68 16.19 9.66 16.03C10.92 15.82 12 16.79 12 18V21H18C19.1 21 20 20.1 20 19V14.3C20 13.51 19.53 12.79 18.81 12.47L16 11.22ZM10 12.5C9.17 12.5 8.5 11.83 8.5 11C8.5 10.17 9.17 9.5 10 9.5C10.83 9.5 11.5 10.17 11.5 11C11.5 11.83 10.83 12.5 10 12.5Z" fill="#593FE4"/>
<path d="M31.656 7.68C31.096 7.68 30.608 7.768 30.192 7.944C29.792 8.12 29.448 8.36 29.16 8.664C28.888 8.952 28.68 9.288 28.536 9.672C28.408 10.04 28.344 10.424 28.344 10.824C28.344 11.224 28.408 11.616 28.536 12C28.68 12.384 28.888 12.728 29.16 13.032C29.448 13.32 29.792 13.56 30.192 13.752C30.608 13.928 31.088 14.016 31.632 14.016H33.096C33.432 14.016 33.72 14.072 33.96 14.184C34.216 14.296 34.424 14.448 34.584 14.64C34.76 14.832 34.888 15.048 34.968 15.288C35.048 15.528 35.088 15.768 35.088 16.008C35.088 16.52 34.92 16.984 34.584 17.4C34.248 17.8 33.752 18 33.096 18H31.656C30.472 18 29.432 17.8 28.536 17.4C27.64 16.984 26.888 16.448 26.28 15.792C25.688 15.136 25.24 14.384 24.936 13.536C24.648 12.688 24.504 11.816 24.504 10.92C24.504 10.008 24.656 9.12 24.96 8.256C25.28 7.392 25.744 6.616 26.352 5.928C26.976 5.24 27.752 4.688 28.68 4.272C29.624 3.856 30.72 3.648 31.968 3.648H33.096C33.432 3.648 33.72 3.704 33.96 3.816C34.216 3.928 34.424 4.08 34.584 4.272C34.76 4.464 34.888 4.68 34.968 4.92C35.064 5.16 35.112 5.408 35.112 5.664C35.112 5.92 35.064 6.168 34.968 6.408C34.888 6.648 34.76 6.864 34.584 7.056C34.424 7.248 34.216 7.4 33.96 7.512C33.72 7.624 33.432 7.68 33.096 7.68H31.656Z" fill="#593FE4"/>
<path d="M40.7062 16.008C40.7062 16.648 40.5063 17.136 40.1063 17.472C39.7223 17.808 39.2582 17.976 38.7142 17.976C38.1862 17.976 37.7223 17.808 37.3223 17.472C36.9383 17.136 36.7463 16.648 36.7463 16.008V5.856C36.7463 5.088 36.8823 4.536 37.1543 4.2C37.4263 3.848 37.9222 3.672 38.6423 3.672C39.2982 3.672 39.7943 3.776 40.1302 3.984C40.4823 4.192 40.8023 4.48 41.0903 4.848L43.7062 8.184L46.2983 4.824C46.5703 4.472 46.8743 4.192 47.2103 3.984C47.5623 3.776 48.0182 3.672 48.5783 3.672C49.2983 3.672 49.8023 3.848 50.0903 4.2C50.3783 4.536 50.5223 5.088 50.5223 5.856V16.008C50.5223 16.648 50.3223 17.136 49.9223 17.472C49.5383 17.808 49.0742 17.976 48.5303 17.976C48.0023 17.976 47.5383 17.808 47.1383 17.472C46.7543 17.136 46.5623 16.648 46.5623 16.008V9.96L44.7863 12.312C44.4023 12.792 44.0023 13.032 43.5863 13.032C43.1543 13.032 42.7623 12.784 42.4103 12.288L40.7062 9.96V16.008Z" fill="#593FE4"/>
<path d="M62.5596 13.416C62.5596 16.472 61.0716 18 58.0956 18H54.1596C52.8956 18 52.2636 17.36 52.2636 16.08V16.008C52.2956 14.68 52.9356 14.016 54.1836 14.016H58.3116C58.5836 14.016 58.7836 13.944 58.9116 13.8C59.0396 13.64 59.1036 13.472 59.1036 13.296C59.1036 13.12 59.0396 12.96 58.9116 12.816C58.7836 12.656 58.5836 12.576 58.3116 12.576H56.2716C53.4556 12.576 52.0476 11.128 52.0476 8.232C52.0476 5.176 53.5516 3.648 56.5596 3.648H59.7276C60.9916 3.648 61.6236 4.288 61.6236 5.568V5.64C61.5916 6.968 60.9516 7.632 59.7036 7.632H56.2956C56.0236 7.632 55.8236 7.712 55.6956 7.872C55.5676 8.016 55.5036 8.176 55.5036 8.352C55.5036 8.528 55.5676 8.696 55.6956 8.856C55.8236 9 56.0236 9.072 56.2956 9.072H58.3356C61.1516 9.072 62.5596 10.52 62.5596 13.416Z" fill="#593FE4"/>
</svg>
