<svg width="19" height="24" viewBox="0 0 19 24" fill="none" xmlns="http://www.w3.org/2000/svg">
<path d="M9.3372 24C10.691 24 11.7987 22.8923 11.7987 21.5385H6.87566C6.87566 22.8923 7.97105 24 9.3372 24ZM16.7218 16.6154V10.4615C16.7218 6.68308 14.7034 3.52 11.1834 2.68308V1.84615C11.1834 0.824615 10.3587 0 9.3372 0C8.31566 0 7.49105 0.824615 7.49105 1.84615V2.68308C3.95874 3.52 1.95259 6.67077 1.95259 10.4615V16.6154L0.364895 18.2031C-0.41049 18.9785 0.131049 20.3077 1.22643 20.3077H17.4357C18.531 20.3077 19.0849 18.9785 18.3095 18.2031L16.7218 16.6154Z" fill="black"/>
</svg>
