<svg width="192" height="160" viewBox="0 0 192 160" fill="none" xmlns="http://www.w3.org/2000/svg">
<path d="M26.8259 90.7822V116.541C26.8259 123.232 30.4926 129.466 36.3592 132.674L82.1926 157.699C87.6926 160.724 94.2926 160.724 99.7926 157.699L145.626 132.674C151.493 129.466 155.159 123.232 155.159 116.541V90.7822L99.7926 121.032C94.2926 124.057 87.6926 124.057 82.1926 121.032L26.8259 90.7822ZM82.1926 2.23223L4.91758 44.3989C-1.40742 47.8822 -1.40742 57.0489 4.91758 60.5322L82.1926 102.699C87.6926 105.724 94.2926 105.724 99.7926 102.699L173.493 62.4572V116.632C173.493 121.674 177.618 125.799 182.659 125.799C187.701 125.799 191.826 121.674 191.826 116.632V57.8739C191.826 54.4822 189.993 51.4572 187.059 49.8072L99.7926 2.23223C94.2926 -0.701107 87.6926 -0.701107 82.1926 2.23223Z" fill="white"/>
</svg>
