<svg width="202" height="166" viewBox="0 0 202 166" fill="none" xmlns="http://www.w3.org/2000/svg">
<path d="M183.5 0.591553H18.4998C8.4165 0.591553 0.166504 8.84155 0.166504 18.9249V46.3332C0.166504 51.3749 4.2915 55.4999 9.33317 55.4999C14.3748 55.4999 18.4998 51.3749 18.4998 46.3332V27.9082C18.4998 22.8665 22.6248 18.7415 27.6665 18.7415H174.333C179.375 18.7415 183.5 22.8665 183.5 27.9082V138.183C183.5 143.225 179.375 147.35 174.333 147.35H27.6665C22.6248 147.35 18.4998 143.225 18.4998 138.183V119.667C18.4998 114.625 14.3748 110.5 9.33317 110.5C4.2915 110.5 0.166504 114.625 0.166504 119.667V147.258C0.166504 157.25 8.32484 165.408 18.3165 165.408H183.5C193.583 165.408 201.833 157.158 201.833 147.075V18.9249C201.833 8.84155 193.583 0.591553 183.5 0.591553ZM99.6248 111.875L125.2 86.2999C127.033 84.4665 127.033 81.6249 125.2 79.7915L99.6248 54.2165C96.7832 51.2832 91.8332 53.2999 91.8332 57.4249V73.8332H9.33317C4.2915 73.8332 0.166504 77.9582 0.166504 82.9999C0.166504 88.0415 4.2915 92.1665 9.33317 92.1665H91.8332V108.575C91.8332 112.7 96.7832 114.717 99.6248 111.875Z" fill="Rgba(255,255,255,15)"/>
</svg>
