<svg width="156" height="148" viewBox="0 0 156 148" fill="none" xmlns="http://www.w3.org/2000/svg">
<path d="M73.4168 37.3334C83.5421 37.3334 91.7502 29.1253 91.7502 19.0001C91.7502 8.87486 83.5421 0.666748 73.4168 0.666748C63.2916 0.666748 55.0835 8.87486 55.0835 19.0001C55.0835 29.1253 63.2916 37.3334 73.4168 37.3334Z" fill="white"/>
<path d="M18.4168 147.333C28.542 147.333 36.7502 139.125 36.7502 129C36.7502 118.875 28.542 110.667 18.4168 110.667C8.29161 110.667 0.0834961 118.875 0.0834961 129C0.0834961 139.125 8.29161 147.333 18.4168 147.333Z" fill="white"/>
<path d="M18.4168 92.3334C28.542 92.3334 36.7502 84.1253 36.7502 74.0001C36.7502 63.8749 28.542 55.6667 18.4168 55.6667C8.29161 55.6667 0.0834961 63.8749 0.0834961 74.0001C0.0834961 84.1253 8.29161 92.3334 18.4168 92.3334Z" fill="white"/>
<path d="M18.4168 37.3334C28.542 37.3334 36.7502 29.1253 36.7502 19.0001C36.7502 8.87486 28.542 0.666748 18.4168 0.666748C8.29161 0.666748 0.0834961 8.87486 0.0834961 19.0001C0.0834961 29.1253 8.29161 37.3334 18.4168 37.3334Z" fill="white"/>
<path d="M128.417 37.3334C138.542 37.3334 146.75 29.1253 146.75 19.0001C146.75 8.87486 138.542 0.666748 128.417 0.666748C118.292 0.666748 110.083 8.87486 110.083 19.0001C110.083 29.1253 118.292 37.3334 128.417 37.3334Z" fill="white"/>
<path d="M64.2502 129.642V142.75C64.2502 145.317 66.2668 147.333 68.8335 147.333H81.6668C82.8585 147.333 84.0502 146.875 84.8752 145.958L138.317 92.5167L118.883 73.0834L65.6252 126.342C64.7085 127.258 64.2502 128.45 64.2502 129.642Z" fill="white"/>
<path d="M73.6918 92.3334L91.7502 74.2751V74.0001C91.7502 63.9167 83.5002 55.6667 73.4168 55.6667C63.3335 55.6667 55.0835 63.9167 55.0835 74.0001C55.0835 84.0834 63.3335 92.3334 73.4168 92.3334H73.6918Z" fill="white"/>
<path d="M154.542 69.9668L141.617 57.0417C139.784 55.2084 136.942 55.2084 135.108 57.0417L125.392 66.7584L144.825 86.1917L154.542 76.4751C156.375 74.6417 156.375 71.8001 154.542 69.9668Z" fill="white"/>
</svg>
