<svg width="32" height="32" viewBox="0 0 32 32" fill="none" xmlns="http://www.w3.org/2000/svg">
<path d="M28.0002 4.01343H4.00016C2.5335 4.01343 1.3335 5.21343 1.3335 6.68009V10.6668C1.3335 11.4001 1.9335 12.0001 2.66683 12.0001C3.40016 12.0001 4.00016 11.4001 4.00016 10.6668V7.98676C4.00016 7.25343 4.60016 6.65343 5.3335 6.65343H26.6668C27.4002 6.65343 28.0002 7.25343 28.0002 7.98676V24.0268C28.0002 24.7601 27.4002 25.3601 26.6668 25.3601H5.3335C4.60016 25.3601 4.00016 24.7601 4.00016 24.0268V21.3334C4.00016 20.6001 3.40016 20.0001 2.66683 20.0001C1.9335 20.0001 1.3335 20.6001 1.3335 21.3334V25.3468C1.3335 26.8001 2.52016 27.9868 3.9735 27.9868H28.0002C29.4668 27.9868 30.6668 26.7868 30.6668 25.3201V6.68009C30.6668 5.21343 29.4668 4.01343 28.0002 4.01343ZM15.8002 20.2001L19.5202 16.4801C19.7868 16.2134 19.7868 15.8001 19.5202 15.5334L15.8002 11.8134C15.3868 11.3868 14.6668 11.6801 14.6668 12.2801V14.6668H2.66683C1.9335 14.6668 1.3335 15.2668 1.3335 16.0001C1.3335 16.7334 1.9335 17.3334 2.66683 17.3334H14.6668V19.7201C14.6668 20.3201 15.3868 20.6134 15.8002 20.2001Z" fill="white"/>
</svg>
