<svg width="30" height="24" viewBox="0 0 30 24" fill="none" xmlns="http://www.w3.org/2000/svg">
<path d="M27.0002 0.0134277H3.00016C1.5335 0.0134277 0.333496 1.21343 0.333496 2.68009V6.66676C0.333496 7.40009 0.933496 8.00009 1.66683 8.00009C2.40016 8.00009 3.00016 7.40009 3.00016 6.66676V3.98676C3.00016 3.25343 3.60016 2.65343 4.3335 2.65343H25.6668C26.4002 2.65343 27.0002 3.25343 27.0002 3.98676V20.0268C27.0002 20.7601 26.4002 21.3601 25.6668 21.3601H4.3335C3.60016 21.3601 3.00016 20.7601 3.00016 20.0268V17.3334C3.00016 16.6001 2.40016 16.0001 1.66683 16.0001C0.933496 16.0001 0.333496 16.6001 0.333496 17.3334V21.3468C0.333496 22.8001 1.52016 23.9868 2.9735 23.9868H27.0002C28.4668 23.9868 29.6668 22.7868 29.6668 21.3201V2.68009C29.6668 1.21343 28.4668 0.0134277 27.0002 0.0134277ZM14.8002 16.2001L18.5202 12.4801C18.7868 12.2134 18.7868 11.8001 18.5202 11.5334L14.8002 7.81343C14.3868 7.38676 13.6668 7.68009 13.6668 8.28009V10.6668H1.66683C0.933496 10.6668 0.333496 11.2668 0.333496 12.0001C0.333496 12.7334 0.933496 13.3334 1.66683 13.3334H13.6668V15.7201C13.6668 16.3201 14.3868 16.6134 14.8002 16.2001Z" fill="white"/>
</svg>
